<svg width="28" height="28" viewBox="0 0 28 28" fill="none" xmlns="http://www.w3.org/2000/svg">
<path d="M18.6667 24.5V22.1667C18.6667 20.929 18.175 19.742 17.2997 18.8668C16.4245 17.9917 15.2374 17.5 13.9996 17.5H6.99907C5.7613 17.5 4.57422 17.9917 3.69898 18.8668C2.82374 19.742 2.33203 20.929 2.33203 22.1667V24.5M18.6667 3.64925C19.6675 3.90868 20.5538 4.49306 21.1865 5.31066C21.8192 6.12826 22.1625 7.13279 22.1625 8.16658C22.1625 9.20038 21.8192 10.2049 21.1865 11.0225C20.5538 11.8401 19.6675 12.4245 18.6667 12.6839M25.6672 24.4999V22.1665C25.6665 21.1325 25.3223 20.1281 24.6887 19.3109C24.0552 18.4937 23.1682 17.91 22.167 17.6515M15.1664 8.16667C15.1664 10.744 13.0769 12.8333 10.4994 12.8333C7.92182 12.8333 5.83231 10.744 5.83231 8.16667C5.83231 5.58934 7.92182 3.5 10.4994 3.5C13.0769 3.5 15.1664 5.58934 15.1664 8.16667Z" stroke="#0066FF" stroke-width="2" stroke-linecap="round"/>
</svg>
